<?xml version="1.0" encoding="UTF-8" standalone="no"?>
<!-- Created with Inkscape (http://www.inkscape.org/) -->

<svg
   width="108mm"
   height="108mm"
   viewBox="0 0 108 108"
   version="1.1"
   id="svg1"
   xml:space="preserve"
   inkscape:version="1.3.2 (091e20e, 2023-11-25, custom)"
   sodipodi:docname="trivia_logo_gradient_centered.svg"
   xmlns:inkscape="http://www.inkscape.org/namespaces/inkscape"
   xmlns:sodipodi="http://sodipodi.sourceforge.net/DTD/sodipodi-0.dtd"
   xmlns="http://www.w3.org/2000/svg"
   xmlns:svg="http://www.w3.org/2000/svg"><sodipodi:namedview
     id="namedview1"
     pagecolor="#ffffff"
     bordercolor="#000000"
     borderopacity="0.25"
     inkscape:showpageshadow="2"
     inkscape:pageopacity="0.0"
     inkscape:pagecheckerboard="0"
     inkscape:deskcolor="#d1d1d1"
     inkscape:document-units="mm"
     inkscape:zoom="1.4200196"
     inkscape:cx="417.24775"
     inkscape:cy="219.36316"
     inkscape:window-width="2560"
     inkscape:window-height="1009"
     inkscape:window-x="1912"
     inkscape:window-y="-8"
     inkscape:window-maximized="1"
     inkscape:current-layer="layer1" /><defs
     id="defs1"><linearGradient
       id="grad"
       x1="0"
       y1="11.533707"
       x2="89.130059"
       y2="11.533707"
       gradientTransform="scale(1.1219559,0.89130059)"
       gradientUnits="userSpaceOnUse"><stop
         offset="0%"
         style="stop-color:#0CC0DF;stop-opacity:1"
         id="stop1" /><stop
         offset="100%"
         style="stop-color:#C1FF72;stop-opacity:1"
         id="stop2" /></linearGradient></defs><g
     inkscape:label="Layer 1"
     inkscape:groupmode="layer"
     id="layer1"><g
       id="g1"
       transform="matrix(1.0057428,0,0,1.0057428,3.71286,3.2120718)"><path
         d="M 65.58,10.28 H 34.42 C 15.41,10.28 0,24.83 0,42.77 v 0 c 0,13.09 8.2,24.36 20,29.51 v 11.84 c 0,5.83 3.71,7.36 8.24,3.4 l 14,-12.26 h 23.34 c 19,0 34.42,-14.55 34.42,-32.49 v 0 C 100,24.83 84.59,10.28 65.58,10.28 Z"
         fill="url(#grad)"
         id="path2"
         style="fill:url(#grad)" /><g
         transform="matrix(1.4,0,0,1.4,16.7,10)"
         id="g3"><path
           d="m 24.3,6 a 11.2,11.2 0 0 0 -8.3,3.3 11,11 0 0 0 -3.5,8.2 2.5,2.5 0 0 0 5,0 6.5,6.5 0 0 1 2,-4.7 6.2,6.2 0 0 1 4.7,-1.8 6.5,6.5 0 0 1 1,12.9 4.4,4.4 0 0 0 -3.7,4.4 v 3.2 a 2.5,2.5 0 0 0 5,0 V 28.7 A 11.6,11.6 0 0 0 35.5,17.2 11.7,11.7 0 0 0 24.3,6 Z"
           id="path3" /><circle
           cx="24"
           cy="39.5"
           r="2.5"
           id="circle3" /></g></g></g></svg>
